<svg width="24px" height="24px" viewBox="0 0 24 24" fill="none" xmlns="http://www.w3.org/2000/svg" class="seo-pages-0" role="img" version="1.1"><path d="M8.4 12.97a.91.91 0 1 0 0-1.82.91.91 0 0 0 0 1.82Zm0 3.4a.91.91 0 1 0 0-1.82.91.91 0 0 0 0 1.82Zm0 3.4a.91.91 0 1 0 0-1.82.91.91 0 0 0 0 1.82Zm3.58-6.8a.91.91 0 1 0 0-1.82.91.91 0 0 0 0 1.82Zm0 3.4a.91.91 0 1 0 0-1.82.91.91 0 0 0 0 1.82Zm0 3.4a.91.91 0 1 0 0-1.82.91.91 0 0 0 0 1.82Zm3.58-6.8a.91.91 0 1 0 0-1.82.91.91 0 0 0 0 1.82Zm0 3.4a.91.91 0 1 0 0-1.82.91.91 0 0 0 0 1.82Zm0 3.4a.91.91 0 1 0 0-1.82.91.91 0 0 0 0 1.82Zm.42-10.25h-8a.62.62 0 0 1-.62-.62V4.92c0-.34.28-.62.62-.62h8c.34 0 .62.28.62.62v3.97c0 .34-.28.62-.62.62v.01ZM8.6 8.27h6.75V5.55H8.61v2.72H8.6Z" fill="#221F1F"></path><path d="M19.09 22.63H4.87a.62.62 0 0 1-.62-.62V2c0-.34.28-.62.62-.62h14.22c.34 0 .62.28.62.62 0 .34-.28.62-.62.62H5.5v18.76h12.96V5.09c0-.34.28-.62.62-.62.34 0 .62.28.62.62V22c0 .34-.28.62-.62.62l.01.01Z" fill="#221F1F"></path></svg>