<svg width="24px" height="24px" viewBox="0 0 24 24" fill="none" xmlns="http://www.w3.org/2000/svg" class="seo-pages-0" role="img" version="1.1"><path d="M4.78 14.48a.63.63 0 0 1-.58-.38c-.13-.32.02-.68.33-.82.87-.36 1.86-.42 2.76-.15l5.83-5.83c-.11-.38-.17-.77-.17-1.16C12.96 3.86 14.82 2 17.1 2c.54 0 1.06.1 1.56.31a.635.635 0 0 1 .21 1.03l-1.44 1.44 1.04 1.04 1.44-1.44c.15-.15.36-.21.56-.17.21.04.38.18.46.38a4.11 4.11 0 0 1-.41 3.89c-.19.29-.58.36-.87.16a.615.615 0 0 1-.16-.87c.33-.48.5-1.04.5-1.62v-.08l-1.08 1.08a.62.62 0 0 1-.44.18c-.17 0-.32-.07-.44-.18L16.1 5.21a.628.628 0 0 1 0-.88l1.08-1.08c-1.62-.06-2.96 1.27-2.96 2.89 0 .37.07.74.22 1.09.1.23.04.5-.14.68l-6.38 6.38c-.18.18-.45.23-.68.14-.71-.29-1.51-.28-2.21.01-.09.03-.17.04-.25.04Z" fill="#121214"></path><path d="M6.14 21.23c-.54 0-1.06-.1-1.56-.31a.658.658 0 0 1-.38-.46c-.05-.21.02-.42.17-.56l1.5-1.5-1.04-1.04-1.5 1.5a.63.63 0 0 1-.57.17.604.604 0 0 1-.45-.37A4.02 4.02 0 0 1 2 17.1c0-.79.22-1.55.64-2.21a.62.62 0 0 1 .86-.19c.29.19.38.57.19.86-.29.46-.45 1-.45 1.54v.08l1.13-1.13c.24-.24.64-.24.88 0l1.92 1.92c.12.12.18.28.18.44 0 .16-.07.32-.18.44l-1.13 1.14c1.6.07 2.96-1.27 2.97-2.89 0-.38-.07-.74-.21-1.09-.1-.23-.04-.5.14-.68l6.38-6.38c.18-.18.44-.23.68-.14.71.29 1.51.28 2.21-.01.32-.13.69.02.82.33.13.32-.01.68-.33.82-.87.37-1.86.42-2.77.16l-5.83 5.83c.11.38.17.77.17 1.16 0 2.28-1.85 4.13-4.13 4.13ZM18.61 19.36a.62.62 0 0 1-.44-.18l-3.19-3.19a.628.628 0 0 1 0-.88c.24-.24.64-.24.88 0l3.19 3.19c.24.24.24.64 0 .88a.62.62 0 0 1-.44.18Z" fill="#121214"></path><path fill-rule="evenodd" clip-rule="evenodd" d="M16.93 20.98a2.3 2.3 0 0 0 1.64.68c.62 0 1.2-.25 1.65-.7l.63-.63c.44-.43.68-1.02.68-1.64 0-.62-.24-1.2-.68-1.64l-4.12-4.12c-.62-.62-1.71-.62-2.33 0l-1.59 1.59c-.31.31-.48.73-.48 1.17 0 .44.17.86.48 1.17l4.12 4.12Zm-1.65-7.16c.07-.08.17-.12.28-.12.11 0 .21.05.28.12l4.12 4.12c.2.2.31.47.31.76 0 .29-.11.56-.31.76l-.63.63c-.41.41-1.11.41-1.52 0l-4.12-4.12a.363.363 0 0 1-.12-.28c0-.11.04-.2.12-.28l1.59-1.59Z" fill="#121214"></path><path d="m5.29 3.7 1.3 2.28L9.61 9l-.74.74-3.02-3.02-2.28-1.3-.83-1.76.79-.79 1.76.83Z" fill="#121214"></path></svg>