<svg width="24px" height="24px" viewBox="0 0 24 24" fill="none" xmlns="http://www.w3.org/2000/svg" class="seo-pages-0" role="img" version="1.1"><path fill-rule="evenodd" clip-rule="evenodd" d="M12.001 21.958a.625.625 0 0 1-.251-1.197c.081-.036 8.131-3.626 8.131-9.08v-6.86c-1.301.527-4.677 1.307-7.88-1.497C8.867 6.067 5.566 5.38 4.12 4.868v6.813c0 3.326 2.953 5.955 5.43 7.574a.625.625 0 0 1-.683 1.047c-2.736-1.789-5.997-4.737-5.997-8.62v-7.05c0-.347.173-.673.464-.873a1.144 1.144 0 0 1 1.057-.123c1.407.538 4.17 1.083 6.847-1.306a1.147 1.147 0 0 1 1.525 0c2.677 2.39 5.439 1.845 6.848 1.306a1.145 1.145 0 0 1 1.056.123c.291.2.464.526.464.872v7.05c0 6.272-8.518 10.066-8.88 10.224a.621.621 0 0 1-.25.053Z" fill="#121214"></path></svg>